<!DOCTYPE svg PUBLIC "-//W3C//DTD SVG 1.1//EN" "https://www.w3.org/Graphics/SVG/1.1/DTD/svg11.dtd"><svg xmlns="http://www.w3.org/2000/svg" class="sc-empnci bWtxoR graph" data-testid="graph" role="img" aria-labelledby="polymath-graph-title" width="803" height="1238"><title id="polymath-graph-title">Workflow Studio State Machine Graph</title><g transform="translate(12,12)" class="new-look-graph"><g class="nodes"><g class="node-container" transform="translate(413.75,22)"><g><circle class="sc-ihgnxF igSnMv shape" r="22"/><text class="sc-bBeLUv ghddec label"><tspan xml:space="preserve" text-anchor="middle" alignment-baseline="central">Start</tspan></text></g></g><g class="node-container" transform="translate(273.75,741)"><g class="sc-fXSgeo zlwZY node state Task" data-testid="graph-ActivateVPCFlowLog" data-state-id="ActivateVPCFlowLog" data-state-type="Task"><g class="new-look-state-node "><rect x="-120" y="-24.5" width="240" height="49" rx="3" ry="3"/><g class="handle" transform="translate(-120,-24.5)"><path d="M5,16 L5,34 M8,16 L8,34"/></g><g class="icon" transform="translate(-104,-24)"><rect fill="var(--color-background-container-header-9ekpze, #fafafa)" x="0.0361026108" y="0.0181291967" width="48" height="48"/><line x1="47.5" y1="0.49122807" x2="47.5" y2="47.5" stroke="var(--color-board-placeholder-active-e71qda, #d5dbdb)" stroke-linecap="square"/><line x1="0.5" y1="0.49122807" x2="0.5" y2="47.5" stroke="var(--color-board-placeholder-active-e71qda, #d5dbdb)" stroke-linecap="square"/><use href="#icon-service-lam" aria-hidden="true"><title>Lambda</title></use></g><g class="text-lines" transform="translate(-48,-24.5)"><text transform="translate(0,17)" class="line1"><tspan xml:space="preserve" text-anchor="start">Lambda: Invoke</tspan></text><text transform="translate(0,35.5)" class="line2 label"><tspan xml:space="preserve" text-anchor="start">ActivateVPCFlowLog</tspan></text></g></g></g></g><g class="node-container" transform="translate(273.75,841.5)"><g class="sc-fXSgeo zlwZY node state Task" data-testid="graph-WaitForAlarmOrTimeout" data-state-id="WaitForAlarmOrTimeout" data-state-type="Task"><g class="new-look-state-node "><rect x="-120" y="-24.5" width="240" height="49" rx="3" ry="3"/><g class="handle" transform="translate(-120,-24.5)"><path d="M5,16 L5,34 M8,16 L8,34"/></g><g class="icon" transform="translate(-104,-24)"><rect fill="var(--color-background-container-header-9ekpze, #fafafa)" x="0.0361026108" y="0.0181291967" width="48" height="48"/><line x1="47.5" y1="0.49122807" x2="47.5" y2="47.5" stroke="var(--color-board-placeholder-active-e71qda, #d5dbdb)" stroke-linecap="square"/><line x1="0.5" y1="0.49122807" x2="0.5" y2="47.5" stroke="var(--color-board-placeholder-active-e71qda, #d5dbdb)" stroke-linecap="square"/><use href="#icon-service-lam" aria-hidden="true"><title>Lambda</title></use></g><g class="text-lines" transform="translate(-48,-24.5)"><text transform="translate(0,17)" class="line1"><tspan xml:space="preserve" text-anchor="start">Lambda: Invoke</tspan></text><text transform="translate(0,35.5)" class="line2 label"><tspan xml:space="preserve" text-anchor="start">WaitForAlarmOrTimeout</tspan></text></g></g></g></g><g class="node-container" transform="translate(413.75,103.5)"><g class="sc-fXSgeo zlwZY node state Pass" data-testid="graph-Add Number of Recordings To State Machine" data-state-id="Add Number of Recordings To State Machine" data-state-type="Pass"><g class="new-look-state-node "><rect x="-183" y="-24.5" width="366" height="49" rx="3" ry="3"/><g class="handle" transform="translate(-183,-24.5)"><path d="M5,16 L5,34 M8,16 L8,34"/></g><g class="icon" transform="translate(-167,-24)"><rect fill="var(--color-background-container-header-9ekpze, #fafafa)" x="0.0361026108" y="0.0181291967" width="48" height="48"/><line x1="47.5" y1="0.49122807" x2="47.5" y2="47.5" stroke="var(--color-board-placeholder-active-e71qda, #d5dbdb)" stroke-linecap="square"/><line x1="0.5" y1="0.49122807" x2="0.5" y2="47.5" stroke="var(--color-board-placeholder-active-e71qda, #d5dbdb)" stroke-linecap="square"/><use href="#icon-flow-pass"/></g><g class="text-lines" transform="translate(-111,-24.5)"><text transform="translate(0,17)" class="line1"><tspan xml:space="preserve" text-anchor="start">Pass state</tspan></text><text transform="translate(0,35.5)" class="line2 label"><tspan xml:space="preserve" text-anchor="start">Add Number of Recordings To State Machine</tspan></text></g></g></g></g><g class="node-container" transform="translate(413.75,187.5)"><g class="sc-fXSgeo zlwZY node state Task" data-testid="graph-Check-NGW-ID" data-state-id="Check-NGW-ID" data-state-type="Task"><g class="new-look-state-node "><rect x="-120" y="-24.5" width="240" height="49" rx="3" ry="3"/><g class="handle" transform="translate(-120,-24.5)"><path d="M5,16 L5,34 M8,16 L8,34"/></g><g class="icon" transform="translate(-104,-24)"><rect fill="var(--color-background-container-header-9ekpze, #fafafa)" x="0.0361026108" y="0.0181291967" width="48" height="48"/><line x1="47.5" y1="0.49122807" x2="47.5" y2="47.5" stroke="var(--color-board-placeholder-active-e71qda, #d5dbdb)" stroke-linecap="square"/><line x1="0.5" y1="0.49122807" x2="0.5" y2="47.5" stroke="var(--color-board-placeholder-active-e71qda, #d5dbdb)" stroke-linecap="square"/><use href="#icon-service-ddb" aria-hidden="true"><title>DynamoDB</title></use></g><g class="text-lines" transform="translate(-48,-24.5)"><text transform="translate(0,17)" class="line1"><tspan xml:space="preserve" text-anchor="start">DynamoDB: GetItem</tspan></text><text transform="translate(0,35.5)" class="line2 label"><tspan xml:space="preserve" text-anchor="start">Check-NGW-ID</tspan></text></g></g></g></g><g class="node-container" transform="translate(120,573)"><g class="sc-fXSgeo zlwZY node state Task" data-testid="graph-AddNGW-ID" data-state-id="AddNGW-ID" data-state-type="Task"><g class="new-look-state-node "><rect x="-120" y="-24.5" width="240" height="49" rx="3" ry="3"/><g class="handle" transform="translate(-120,-24.5)"><path d="M5,16 L5,34 M8,16 L8,34"/></g><g class="icon" transform="translate(-104,-24)"><rect fill="var(--color-background-container-header-9ekpze, #fafafa)" x="0.0361026108" y="0.0181291967" width="48" height="48"/><line x1="47.5" y1="0.49122807" x2="47.5" y2="47.5" stroke="var(--color-board-placeholder-active-e71qda, #d5dbdb)" stroke-linecap="square"/><line x1="0.5" y1="0.49122807" x2="0.5" y2="47.5" stroke="var(--color-board-placeholder-active-e71qda, #d5dbdb)" stroke-linecap="square"/><use href="#icon-service-ddb" aria-hidden="true"><title>DynamoDB</title></use></g><g class="text-lines" transform="translate(-48,-24.5)"><text transform="translate(0,17)" class="line1"><tspan xml:space="preserve" text-anchor="start">DynamoDB: PutItem</tspan></text><text transform="translate(0,35.5)" class="line2 label"><tspan xml:space="preserve" text-anchor="start">AddNGW-ID</tspan></text></g></g></g></g><g class="node-container" transform="translate(273.75,657)"><g class="sc-fXSgeo zlwZY node state Pass" data-testid="graph-Extract-NGW-ID" data-state-id="Extract-NGW-ID" data-state-type="Pass"><g class="new-look-state-node "><rect x="-120" y="-24.5" width="240" height="49" rx="3" ry="3"/><g class="handle" transform="translate(-120,-24.5)"><path d="M5,16 L5,34 M8,16 L8,34"/></g><g class="icon" transform="translate(-104,-24)"><rect fill="var(--color-background-container-header-9ekpze, #fafafa)" x="0.0361026108" y="0.0181291967" width="48" height="48"/><line x1="47.5" y1="0.49122807" x2="47.5" y2="47.5" stroke="var(--color-board-placeholder-active-e71qda, #d5dbdb)" stroke-linecap="square"/><line x1="0.5" y1="0.49122807" x2="0.5" y2="47.5" stroke="var(--color-board-placeholder-active-e71qda, #d5dbdb)" stroke-linecap="square"/><use href="#icon-flow-pass"/></g><g class="text-lines" transform="translate(-48,-24.5)"><text transform="translate(0,17)" class="line1"><tspan xml:space="preserve" text-anchor="start">Pass state</tspan></text><text transform="translate(0,35.5)" class="line2 label"><tspan xml:space="preserve" text-anchor="start">Extract-NGW-ID</tspan></text></g></g></g></g><g class="node-container" transform="translate(413.75,271.5)"><g class="sc-fXSgeo zlwZY node state Choice" data-testid="graph-Were Flow Logs recorded yet?" data-state-id="Were Flow Logs recorded yet?" data-state-type="Choice"><g class="new-look-state-node "><rect x="-135.5" y="-24.5" width="271" height="49" rx="3" ry="3"/><g class="handle" transform="translate(-135.5,-24.5)"><path d="M5,16 L5,34 M8,16 L8,34"/></g><g class="icon" transform="translate(-119.5,-24)"><rect fill="var(--color-background-container-header-9ekpze, #fafafa)" x="0.0361026108" y="0.0181291967" width="48" height="48"/><line x1="47.5" y1="0.49122807" x2="47.5" y2="47.5" stroke="var(--color-board-placeholder-active-e71qda, #d5dbdb)" stroke-linecap="square"/><line x1="0.5" y1="0.49122807" x2="0.5" y2="47.5" stroke="var(--color-board-placeholder-active-e71qda, #d5dbdb)" stroke-linecap="square"/><use href="#icon-flow-choice"/></g><g class="text-lines" transform="translate(-63.5,-24.5)"><text transform="translate(0,17)" class="line1"><tspan xml:space="preserve" text-anchor="start">Choice state</tspan></text><text transform="translate(0,35.5)" class="line2 label"><tspan xml:space="preserve" text-anchor="start">Were Flow Logs recorded yet?</tspan></text></g></g></g></g><g class="node-container" transform="translate(567.5,372)"><g class="sc-fXSgeo zlwZY node state Pass" data-testid="graph-Convert Numbers" data-state-id="Convert Numbers" data-state-type="Pass"><g class="new-look-state-node "><rect x="-120" y="-24.5" width="240" height="49" rx="3" ry="3"/><g class="handle" transform="translate(-120,-24.5)"><path d="M5,16 L5,34 M8,16 L8,34"/></g><g class="icon" transform="translate(-104,-24)"><rect fill="var(--color-background-container-header-9ekpze, #fafafa)" x="0.0361026108" y="0.0181291967" width="48" height="48"/><line x1="47.5" y1="0.49122807" x2="47.5" y2="47.5" stroke="var(--color-board-placeholder-active-e71qda, #d5dbdb)" stroke-linecap="square"/><line x1="0.5" y1="0.49122807" x2="0.5" y2="47.5" stroke="var(--color-board-placeholder-active-e71qda, #d5dbdb)" stroke-linecap="square"/><use href="#icon-flow-pass"/></g><g class="text-lines" transform="translate(-48,-24.5)"><text transform="translate(0,17)" class="line1"><tspan xml:space="preserve" text-anchor="start">Pass state</tspan></text><text transform="translate(0,35.5)" class="line2 label"><tspan xml:space="preserve" text-anchor="start">Convert Numbers</tspan></text></g></g></g></g><g class="node-container" transform="translate(567.5,472.5)"><g class="sc-fXSgeo zlwZY node state Choice" data-testid="graph-ShouldWeRecord?" data-state-id="ShouldWeRecord?" data-state-type="Choice"><g class="new-look-state-node "><rect x="-120" y="-24.5" width="240" height="49" rx="3" ry="3"/><g class="handle" transform="translate(-120,-24.5)"><path d="M5,16 L5,34 M8,16 L8,34"/></g><g class="icon" transform="translate(-104,-24)"><rect fill="var(--color-background-container-header-9ekpze, #fafafa)" x="0.0361026108" y="0.0181291967" width="48" height="48"/><line x1="47.5" y1="0.49122807" x2="47.5" y2="47.5" stroke="var(--color-board-placeholder-active-e71qda, #d5dbdb)" stroke-linecap="square"/><line x1="0.5" y1="0.49122807" x2="0.5" y2="47.5" stroke="var(--color-board-placeholder-active-e71qda, #d5dbdb)" stroke-linecap="square"/><use href="#icon-flow-choice"/></g><g class="text-lines" transform="translate(-48,-24.5)"><text transform="translate(0,17)" class="line1"><tspan xml:space="preserve" text-anchor="start">Choice state</tspan></text><text transform="translate(0,35.5)" class="line2 label"><tspan xml:space="preserve" text-anchor="start">ShouldWeRecord?</tspan></text></g></g></g></g><g class="node-container" transform="translate(273.75,1026)"><g class="sc-fXSgeo zlwZY node state Task" data-testid="graph-DeleteVPCFlowLog" data-state-id="DeleteVPCFlowLog" data-state-type="Task"><g class="new-look-state-node "><rect x="-120" y="-24.5" width="240" height="49" rx="3" ry="3"/><g class="handle" transform="translate(-120,-24.5)"><path d="M5,16 L5,34 M8,16 L8,34"/></g><g class="icon" transform="translate(-104,-24)"><rect fill="var(--color-background-container-header-9ekpze, #fafafa)" x="0.0361026108" y="0.0181291967" width="48" height="48"/><line x1="47.5" y1="0.49122807" x2="47.5" y2="47.5" stroke="var(--color-board-placeholder-active-e71qda, #d5dbdb)" stroke-linecap="square"/><line x1="0.5" y1="0.49122807" x2="0.5" y2="47.5" stroke="var(--color-board-placeholder-active-e71qda, #d5dbdb)" stroke-linecap="square"/><use href="#icon-service-lam" aria-hidden="true"><title>Lambda</title></use></g><g class="text-lines" transform="translate(-48,-24.5)"><text transform="translate(0,17)" class="line1"><tspan xml:space="preserve" text-anchor="start">Lambda: Invoke</tspan></text><text transform="translate(0,35.5)" class="line2 label"><tspan xml:space="preserve" text-anchor="start">DeleteVPCFlowLog</tspan></text></g></g></g></g><g class="node-container" transform="translate(273.75,1110)"><g class="sc-fXSgeo zlwZY node state Task" data-testid="graph-NotifySNS" data-state-id="NotifySNS" data-state-type="Task"><g class="new-look-state-node "><rect x="-120" y="-24.5" width="240" height="49" rx="3" ry="3"/><g class="handle" transform="translate(-120,-24.5)"><path d="M5,16 L5,34 M8,16 L8,34"/></g><g class="icon" transform="translate(-104,-24)"><rect fill="var(--color-background-container-header-9ekpze, #fafafa)" x="0.0361026108" y="0.0181291967" width="48" height="48"/><line x1="47.5" y1="0.49122807" x2="47.5" y2="47.5" stroke="var(--color-board-placeholder-active-e71qda, #d5dbdb)" stroke-linecap="square"/><line x1="0.5" y1="0.49122807" x2="0.5" y2="47.5" stroke="var(--color-board-placeholder-active-e71qda, #d5dbdb)" stroke-linecap="square"/><use href="#icon-service-sns" aria-hidden="true"><title>Simple Notification Service</title></use></g><g class="text-lines" transform="translate(-48,-24.5)"><text transform="translate(0,17)" class="line1"><tspan xml:space="preserve" text-anchor="start">SNS: Publish</tspan></text><text transform="translate(0,35.5)" class="line2 label"><tspan xml:space="preserve" text-anchor="start">NotifySNS</tspan></text></g></g></g></g><g class="node-container" transform="translate(427.5,573)"><g class="sc-fXSgeo zlwZY node state Task" data-testid="graph-Increment Number Of Recordings" data-state-id="Increment Number Of Recordings" data-state-type="Task"><g class="new-look-state-node "><rect x="-147.5" y="-24.5" width="295" height="49" rx="3" ry="3"/><g class="handle" transform="translate(-147.5,-24.5)"><path d="M5,16 L5,34 M8,16 L8,34"/></g><g class="icon" transform="translate(-131.5,-24)"><rect fill="var(--color-background-container-header-9ekpze, #fafafa)" x="0.0361026108" y="0.0181291967" width="48" height="48"/><line x1="47.5" y1="0.49122807" x2="47.5" y2="47.5" stroke="var(--color-board-placeholder-active-e71qda, #d5dbdb)" stroke-linecap="square"/><line x1="0.5" y1="0.49122807" x2="0.5" y2="47.5" stroke="var(--color-board-placeholder-active-e71qda, #d5dbdb)" stroke-linecap="square"/><use href="#icon-service-ddb" aria-hidden="true"><title>DynamoDB</title></use></g><g class="text-lines" transform="translate(-75.5,-24.5)"><text transform="translate(0,17)" class="line1"><tspan xml:space="preserve" text-anchor="start">DynamoDB: UpdateItem</tspan></text><text transform="translate(0,35.5)" class="line2 label"><tspan xml:space="preserve" text-anchor="start">Increment Number Of Recordings</tspan></text></g></g></g></g><g class="node-container" transform="translate(413.75,1191.5)"><g><circle class="sc-ihgnxF igSnMv shape" r="22"/><text class="sc-bBeLUv ghddec label"><tspan xml:space="preserve" text-anchor="middle" alignment-baseline="central">End</tspan></text></g></g><g class="node-container" transform="translate(273.75,942)"><g class="sc-fXSgeo zlwZY node state Task" data-testid="graph-RemoveToken" data-state-id="RemoveToken" data-state-type="Task"><g class="new-look-state-node "><rect x="-120" y="-24.5" width="240" height="49" rx="3" ry="3"/><g class="handle" transform="translate(-120,-24.5)"><path d="M5,16 L5,34 M8,16 L8,34"/></g><g class="icon" transform="translate(-104,-24)"><rect fill="var(--color-background-container-header-9ekpze, #fafafa)" x="0.0361026108" y="0.0181291967" width="48" height="48"/><line x1="47.5" y1="0.49122807" x2="47.5" y2="47.5" stroke="var(--color-board-placeholder-active-e71qda, #d5dbdb)" stroke-linecap="square"/><line x1="0.5" y1="0.49122807" x2="0.5" y2="47.5" stroke="var(--color-board-placeholder-active-e71qda, #d5dbdb)" stroke-linecap="square"/><use href="#icon-service-ddb" aria-hidden="true"><title>DynamoDB</title></use></g><g class="text-lines" transform="translate(-48,-24.5)"><text transform="translate(0,17)" class="line1"><tspan xml:space="preserve" text-anchor="start">DynamoDB: UpdateItem</tspan></text><text transform="translate(0,35.5)" class="line2 label"><tspan xml:space="preserve" text-anchor="start">RemoveToken</tspan></text></g></g></g></g><g class="node-container" transform="translate(658.75,1110)"><g class="sc-fXSgeo zlwZY node state Pass" data-testid="graph-VPCflAlreadyRecorded" data-state-id="VPCflAlreadyRecorded" data-state-type="Pass"><g class="new-look-state-node "><rect x="-120" y="-24.5" width="240" height="49" rx="3" ry="3"/><g class="handle" transform="translate(-120,-24.5)"><path d="M5,16 L5,34 M8,16 L8,34"/></g><g class="icon" transform="translate(-104,-24)"><rect fill="var(--color-background-container-header-9ekpze, #fafafa)" x="0.0361026108" y="0.0181291967" width="48" height="48"/><line x1="47.5" y1="0.49122807" x2="47.5" y2="47.5" stroke="var(--color-board-placeholder-active-e71qda, #d5dbdb)" stroke-linecap="square"/><line x1="0.5" y1="0.49122807" x2="0.5" y2="47.5" stroke="var(--color-board-placeholder-active-e71qda, #d5dbdb)" stroke-linecap="square"/><use href="#icon-flow-pass"/></g><g class="text-lines" transform="translate(-48,-24.5)"><text transform="translate(0,17)" class="line1"><tspan xml:space="preserve" text-anchor="start">Pass state</tspan></text><text transform="translate(0,35.5)" class="line2 label"><tspan xml:space="preserve" text-anchor="start">VPCflAlreadyRecorded</tspan></text></g></g></g></g></g><g class="edges"><g class="sc-JrDLc dZMWaG edge"><path id="state-ActivateVPCFlowLog:state-WaitForAlarmOrTimeout:normal" d="M273.75,765.5L273.75,769.7916666666666C273.75,774.0833333333334,273.75,782.6666666666666,273.75,791.25C273.75,799.8333333333334,273.75,808.4166666666666,273.75,812.7083333333334L273.75,817" marker-end="url(#arrowhead)" fill="none"/></g><g class="sc-JrDLc dZMWaG edge"><path id="state-Add Number of Recordings To State Machine:state-Check-NGW-ID:normal" d="M413.75,128L413.75,130.91666666666666C413.75,133.83333333333334,413.75,139.66666666666666,413.75,145.5C413.75,151.33333333333334,413.75,157.16666666666666,413.75,160.08333333333334L413.75,163" marker-end="url(#arrowhead)" fill="none"/></g><g class="sc-JrDLc dZMWaG edge"><path id="start:state-Add Number of Recordings To State Machine" d="M413.75,44L413.75,46.916666666666664C413.75,49.833333333333336,413.75,55.666666666666664,413.75,61.5C413.75,67.33333333333333,413.75,73.16666666666667,413.75,76.08333333333333L413.75,79" marker-end="url(#arrowhead)" fill="none"/></g><g class="sc-JrDLc dZMWaG edge"><path id="state-AddNGW-ID:state-Extract-NGW-ID:normal" d="M120,597.5L120,600.4166666666666C120,603.3333333333334,120,609.1666666666666,130.67708333333334,615C141.35416666666666,620.8333333333334,162.70833333333334,626.6666666666666,173.38541666666666,629.5833333333334L184.0625,632.5" marker-end="url(#arrowhead)" fill="none"/></g><g class="sc-JrDLc dZMWaG edge"><path id="state-Check-NGW-ID:state-Were Flow Logs recorded yet?:normal" d="M413.75,212L413.75,214.91666666666666C413.75,217.83333333333334,413.75,223.66666666666666,413.75,229.5C413.75,235.33333333333334,413.75,241.16666666666666,413.75,244.08333333333334L413.75,247" marker-end="url(#arrowhead)" fill="none"/></g><g class="sc-JrDLc dZMWaG edge"><path id="state-Convert Numbers:state-ShouldWeRecord?:normal" d="M567.5,396.5L567.5,400.7916666666667C567.5,405.0833333333333,567.5,413.6666666666667,567.5,422.25C567.5,430.8333333333333,567.5,439.4166666666667,567.5,443.7083333333333L567.5,448" marker-end="url(#arrowhead)" fill="none"/></g><g class="sc-JrDLc dZMWaG edge"><path id="state-DeleteVPCFlowLog:state-NotifySNS:normal" d="M273.75,1050.5L273.75,1053.4166666666667C273.75,1056.3333333333333,273.75,1062.1666666666667,273.75,1068C273.75,1073.8333333333333,273.75,1079.6666666666667,273.75,1082.5833333333333L273.75,1085.5" marker-end="url(#arrowhead)" fill="none"/></g><g class="sc-JrDLc dZMWaG edge"><path id="state-Extract-NGW-ID:state-ActivateVPCFlowLog:normal" d="M273.75,681.5L273.75,684.4166666666666C273.75,687.3333333333334,273.75,693.1666666666666,273.75,699C273.75,704.8333333333334,273.75,710.6666666666666,273.75,713.5833333333334L273.75,716.5" marker-end="url(#arrowhead)" fill="none"/></g><g class="sc-JrDLc dZMWaG edge"><path id="state-Increment Number Of Recordings:state-Extract-NGW-ID:normal" d="M427.5,597.5L427.5,600.4166666666666C427.5,603.3333333333334,427.5,609.1666666666666,416.8229166666667,615C406.1458333333333,620.8333333333334,384.7916666666667,626.6666666666666,374.1145833333333,629.5833333333334L363.4375,632.5" marker-end="url(#arrowhead)" fill="none"/></g><g class="sc-JrDLc dZMWaG edge"><path id="state-NotifySNS:end:normal" d="M273.75,1134.5L273.75,1137.4166666666667C273.75,1140.3333333333333,273.75,1146.1666666666667,293.5544356314808,1154.671013386501C313.3588712629616,1163.1753601063356,352.96774252592326,1174.3507202126711,372.7721781574041,1179.938400265839L392.57661378888486,1185.5260803190067" marker-end="url(#arrowhead)" fill="none"/></g><g class="sc-JrDLc dZMWaG edge"><path id="state-RemoveToken:state-DeleteVPCFlowLog:normal" d="M273.75,966.5L273.75,969.4166666666666C273.75,972.3333333333334,273.75,978.1666666666666,273.75,984C273.75,989.8333333333334,273.75,995.6666666666666,273.75,998.5833333333334L273.75,1001.5" marker-end="url(#arrowhead)" fill="none"/></g><g class="sc-JrDLc dZMWaG edge"><path id="state-ShouldWeRecord?:state-VPCflAlreadyRecorded:choiceRule:0" d="M611.9900497512438,497L619.7833747927031,501.2916666666667C627.5766998341625,505.5833333333333,643.1633499170813,514.1666666666666,650.9566749585406,526.8333333333334C658.75,539.5,658.75,556.25,658.75,571.625C658.75,587,658.75,601,658.75,615C658.75,629,658.75,643,658.75,657C658.75,671,658.75,685,658.75,699C658.75,713,658.75,727,658.75,742.375C658.75,757.75,658.75,774.5,658.75,791.25C658.75,808,658.75,824.75,658.75,841.5C658.75,858.25,658.75,875,658.75,891.75C658.75,908.5,658.75,925.25,658.75,940.625C658.75,956,658.75,970,658.75,984C658.75,998,658.75,1012,658.75,1026C658.75,1040,658.75,1054,658.75,1063.9166666666667C658.75,1073.8333333333333,658.75,1079.6666666666667,658.75,1082.5833333333333L658.75,1085.5" marker-end="url(#arrowhead)" fill="none"/><g data-testid="graph-ShouldWeRecord?-0" class="edge-label" transform="translate(650.9566749585406,526.8333333333334)"><rect x="-51.5" y="-8.25" width="103" height="16.5" class="sc-fjvvzt iiujjq"/><text class="sc-bbSZdi cigjzp label"><tspan xml:space="preserve" text-anchor="middle" alignment-baseline="central">Recorded Max Times</tspan><title>Recorded Max Times</title></text></g></g><g class="sc-JrDLc dZMWaG edge"><path id="state-ShouldWeRecord?:state-Increment Number Of Recordings:choiceDefault" d="M499.2412935323383,497L487.28441127694856,501.2916666666667C475.32752902155886,505.5833333333333,451.4137645107794,514.1666666666666,439.4568822553897,522.75C427.5,531.3333333333334,427.5,539.9166666666666,427.5,544.2083333333334L427.5,548.5" marker-end="url(#arrowhead)" fill="none"/><g data-testid="graph-ShouldWeRecord?-Default" class="edge-label" transform="translate(439.4568822553897,522.75)"><rect x="-22" y="-8.25" width="44" height="16.5" class="sc-fjvvzt iiujjq"/><text class="sc-bbSZdi cigjzp label"><tspan xml:space="preserve" text-anchor="middle" alignment-baseline="central">Default</tspan><title>Default</title></text></g></g><g class="sc-JrDLc dZMWaG edge"><path id="state-VPCflAlreadyRecorded:end:normal" d="M658.75,1134.5L658.75,1137.4166666666667C658.75,1140.3333333333333,658.75,1146.1666666666667,621.5365882309442,1155.0830466593648C584.3231764618884,1163.9994266520628,509.8963529237767,1175.9988533041258,472.68294115472094,1181.9985666301573L435.4695293856651,1187.9982799561888" marker-end="url(#arrowhead)" fill="none"/></g><g class="sc-JrDLc dZMWaG edge"><path id="state-WaitForAlarmOrTimeout:state-RemoveToken:normal" d="M266.4365671641791,866L265.1554726368159,870.2916666666666C263.8743781094527,874.5833333333334,261.3121890547264,883.1666666666666,261.31218905472633,891.75C261.3121890547264,900.3333333333334,263.8743781094527,908.9166666666666,265.1554726368159,913.2083333333334L266.4365671641791,917.5" marker-end="url(#arrowhead)" fill="none"/></g><g class="sc-JrDLc dZMWaG edge"><path id="state-WaitForAlarmOrTimeout:state-RemoveToken:catch:0" d="M373.7002487562189,866L391.2085406301824,870.2916666666666C408.71683250414594,874.5833333333334,443.733416252073,883.1666666666666,443.733416252073,891.75C443.733416252073,900.3333333333334,408.71683250414594,908.9166666666666,391.2085406301824,913.2083333333334L373.7002487562189,917.5" marker-end="url(#arrowhead)" fill="none"/><g data-testid="graph-WaitForAlarmOrTimeout-0" class="edge-label" transform="translate(443.733416252073,891.75)"><rect x="-25" y="-8.25" width="50" height="16.5" class="sc-fjvvzt iiujjq"/><text class="sc-bbSZdi cigjzp label"><tspan xml:space="preserve" text-anchor="middle" alignment-baseline="central">Catch #1</tspan><title>Catch #1</title></text></g></g><g class="sc-JrDLc dZMWaG edge"><path id="state-Were Flow Logs recorded yet?:state-AddNGW-ID:choiceRule:0" d="M278.25,294.67914893617024L251.875,299.19095744680857C225.5,303.70276595744684,172.75,312.7263829787234,146.375,325.6131914893617C120,338.5,120,355.25,120,372C120,388.75,120,405.5,120,422.25C120,439,120,455.75,120,472.5C120,489.25,120,506,120,518.6666666666666C120,531.3333333333334,120,539.9166666666666,120,544.2083333333334L120,548.5" marker-end="url(#arrowhead)" fill="none"/><g data-testid="graph-Were Flow Logs recorded yet?-0" class="edge-label" transform="translate(146.375,325.6131914893617)"><rect x="-102" y="-8.25" width="204" height="16.5" class="sc-fjvvzt iiujjq"/><text class="sc-bbSZdi cigjzp label"><tspan xml:space="preserve" text-anchor="middle" alignment-baseline="central">If not recorded yet - go to add the Item t…</tspan><title>If not recorded yet - go to add the Item to dynamoDB</title></text></g></g><g class="sc-JrDLc dZMWaG edge"><path id="state-Were Flow Logs recorded yet?:state-Convert Numbers:choiceDefault" d="M488.71268656716416,296L501.84390547263683,300.2916666666667C514.9751243781094,304.5833333333333,541.2375621890548,313.1666666666667,554.3687810945274,321.75C567.5,330.3333333333333,567.5,338.9166666666667,567.5,343.2083333333333L567.5,347.5" marker-end="url(#arrowhead)" fill="none"/><g data-testid="graph-Were Flow Logs recorded yet?-Default" class="edge-label" transform="translate(554.3687810945274,321.75)"><rect x="-22" y="-8.25" width="44" height="16.5" class="sc-fjvvzt iiujjq"/><text class="sc-bbSZdi cigjzp label"><tspan xml:space="preserve" text-anchor="middle" alignment-baseline="central">Default</tspan><title>Default</title></text></g></g></g><defs><marker id="arrowhead" markerWidth="8" markerHeight="6" refX="7" refY="3" orient="auto" class="sc-fvtFIe jubXqc"><polygon points="0 0, 8 3, 0 6"/></marker><marker id="highlighted-arrowhead" markerWidth="6" markerHeight="4" refX="5" refY="2" orient="auto" class="sc-fvtFIe jubXqc"><polygon points="0 0, 6 2, 0 4"/></marker><marker id="error-arrowhead" markerWidth="6" markerHeight="4" refX="5" refY="2" orient="auto" class="sc-fvtFIe jubXqc"><polygon points="0 0, 6 2, 0 4"/></marker><marker id="large-arrowhead" markerWidth="10" markerHeight="8" refX="9" refY="4" orient="auto" class="sc-fvtFIe jubXqc"><polygon points="0 0, 10 4, 0 8"/></marker><marker id="large-highlighted-arrowhead" markerWidth="5.5" markerHeight="4" refX="4.5" refY="2" orient="auto" class="sc-fvtFIe jubXqc"><polygon points="0 0, 5.5 2, 0 4"/></marker><marker id="large-error-arrowhead" markerWidth="10" markerHeight="8" refX="9" refY="4" orient="auto" class="sc-fvtFIe jubXqc"><polygon points="0 0, 10 4, 0 8"/></marker><linearGradient x1="0%" y1="100%" x2="100%" y2="0%" id="gradient-orange"><stop stop-color="#C8511B" offset="0%"/><stop stop-color="#FF9900" offset="100%"/></linearGradient><linearGradient x1="0%" y1="100%" x2="100%" y2="0%" id="gradient-turquoise"><stop stop-color="#055F4E" offset="0%"/><stop stop-color="#56C0A7" offset="100%"/></linearGradient><linearGradient x1="0%" y1="100%" x2="100%" y2="0%" id="gradient-blue"><stop stop-color="#2E27AD" offset="0%"/><stop stop-color="#527FFF" offset="100%"/></linearGradient><linearGradient x1="0%" y1="100%" x2="100%" y2="0%" id="gradient-pink"><stop stop-color="#B0084D" offset="0%"/><stop stop-color="#FF4F8B" offset="100%"/></linearGradient><linearGradient x1="0%" y1="100%" x2="100%" y2="0%" id="gradient-red"><stop stop-color="#BD0816" offset="0%"/><stop stop-color="#FF5252" offset="100%"/></linearGradient><linearGradient x1="0%" y1="100%" x2="100%" y2="0%" id="gradient-green"><stop stop-color="#1B660F" offset="0%"/><stop stop-color="#6CAE3E" offset="100%"/></linearGradient><linearGradient x1="0%" y1="100%" x2="100%" y2="0%" id="gradient-purple"><stop stop-color="#4D27A8" offset="0%"/><stop stop-color="#A166FF" offset="100%"/></linearGradient><linearGradient x1="0%" y1="100%" x2="100%" y2="0%" id="gradient-grey"><stop stop-color="#DCDCDC" offset="0%"/><stop stop-color="#F6F5F7" offset="100%"/></linearGradient>,<linearGradient x1="0%" y1="100%" x2="100%" y2="0%" id="gradient-ag"><stop stop-color="#BC1356" offset="0%"/><stop stop-color="#F34482" offset="100%"/></linearGradient><linearGradient x1="0%" y1="100%" x2="100%" y2="0%" id="gradient-athena"><stop stop-color="#5930B5" offset="0%"/><stop stop-color="#945DF2" offset="100%"/></linearGradient><linearGradient x1="0%" y1="100%" x2="100%" y2="0%" id="gradient-emr"><stop stop-color="#5930B5" offset="0%"/><stop stop-color="#945DF2" offset="100%"/></linearGradient><linearGradient x1="0%" y1="100%" x2="100%" y2="0%" id="gradient-glue"><stop stop-color="#5930B5" offset="0%"/><stop stop-color="#945DF2" offset="100%"/></linearGradient><linearGradient x1="0%" y1="100%" x2="100%" y2="0%" id="gradient-sns"><stop stop-color="#BC1356" offset="0%"/><stop stop-color="#F34482" offset="100%"/></linearGradient><linearGradient x1="0%" y1="100%" x2="100%" y2="0%" id="gradient-states"><stop stop-color="#BC1356" offset="0%"/><stop stop-color="#F34482" offset="100%"/></linearGradient><linearGradient x1="0%" y1="100%" x2="100%" y2="0%" id="gradient-generic"><stop stop-color="#ccc" offset="0%"/><stop stop-color="#ddd" offset="100%"/></linearGradient><g stroke="none" stroke-width="1" fill="none" fill-rule="evenodd" id="icon-flow-pass"><g transform="translate(10.500000, 8.750000)" fill="#0073BB" fill-rule="nonzero"><path d="M13.8217363,31.2803301 L13.7368454,31.3532508 L13.7368454,31.3532508 L13.6534426,31.407053 L13.6534426,31.407053 L13.6052878,31.4313839 L13.6052878,31.4313839 L13.5081671,31.4681458 L13.5081671,31.4681458 L13.4513711,31.4828395 L13.4513711,31.4828395 L13.3846755,31.4942127 L13.3846755,31.4942127 L13.3412428,31.498357 L13.3412428,31.498357 L13.241495,31.498357 L13.241495,31.498357 L13.1802045,31.4917588 L13.1802045,31.4917588 L13.1314644,31.4828361 L13.1314644,31.4828361 L13.0652921,31.4652652 L12.9776235,31.4314294 L12.9776235,31.4314294 L12.9293782,31.4070608 L12.9293782,31.4070608 L12.8294824,31.3409596 L12.7610762,31.2803301 L12.7610762,31.2803301 L8.26107616,26.7803301 C7.96818295,26.4874369 7.96818295,26.0125631 8.26107616,25.7196699 C8.52734273,25.4534034 8.94400641,25.4291973 9.2376179,25.6470518 L9.32173634,25.7196699 L12.5814063,28.979 L12.581,19.7495522 L3.5,19.75 C1.6314366,19.75 0.104873551,18.2857224 0.00517886273,16.4420352 L0,16.25 L0,12.25 C0,10.3814366 1.4642776,8.85487355 3.3079648,8.75517886 L3.5,8.75 L11.686,8.74955216 L11.686,10.2495522 L3.5,10.25 C2.4456382,10.25 1.58183488,11.0658778 1.50548574,12.1007377 L1.5,12.25 L1.5,16.25 C1.5,17.3043618 2.31587779,18.1681651 3.35073766,18.2445143 L3.5,18.25 L22.5,18.25 C23.5543618,18.25 24.4181651,17.4341222 24.4945143,16.3992623 L24.5,16.25 L24.5,12.25 C24.5,11.1956382 23.6841222,10.3318349 22.6492623,10.2554857 L22.5,10.25 L15.686,10.2495522 L15.686,8.74955216 L22.5,8.75 C24.3685634,8.75 25.8951264,10.2142776 25.9948211,12.0579648 L26,12.25 L26,16.25 C26,18.1185634 24.5357224,19.6451264 22.6920352,19.7448211 L22.5,19.75 L14.081,19.7495522 L14.0814063,28.899 L17.2610762,25.7196699 L17.3451946,25.6470518 C17.6388061,25.4291973 18.0554698,25.4534034 18.3217363,25.7196699 C18.5880029,25.9859365 18.6122089,26.4026002 18.3943545,26.6962117 L18.3217363,26.7803301 L13.8217363,31.2803301 Z" fill="false"/><polygon points="14.0818291 0 14.0818291 14.5 12.5818291 14.5 12.5818291 0" fill="false"/></g></g><g stroke="none" stroke-width="1" fill="none" fill-rule="evenodd" id="icon-flow-choice"><g transform="translate(9.252020, 8.729185)" fill="#0073BB" fill-rule="nonzero"><path d="M13.7176503,0.219669914 C13.9839168,-0.0465966484 14.4005805,-0.0708026996 14.694192,0.147051761 L14.7783104,0.219669914 L26.7991257,12.2404852 C27.0653923,12.5067518 27.0895983,12.9234154 26.8717439,13.2170269 L26.7991257,13.3011454 L19.848,20.251 L27.063,27.58 L27.0635443,24.4725437 C27.0635443,24.0583302 27.3993308,23.7225437 27.8135443,23.7225437 C28.1901021,23.7225437 28.5018441,24.0000532 28.5554124,24.3617142 L28.5635443,24.4725437 L28.5635443,29.4222912 C28.5635443,29.4735748 28.5583971,29.5236562 28.5485912,29.5720469 L28.5290567,29.6477745 L28.4912259,29.7440224 L28.4674556,29.7898473 L28.4399848,29.8348433 L28.3922808,29.8993609 L28.3266417,29.9693147 L28.2903734,30.0012261 L28.2103598,30.0588356 L28.1372883,30.0990133 L28.0408973,30.1372113 L27.9243738,30.1641593 C27.8841362,30.1698129 27.8491297,30.1722912 27.8135443,30.1722912 L22.8637969,30.1722912 C22.4495833,30.1722912 22.1137969,29.8365048 22.1137969,29.4222912 C22.1137969,29.0457334 22.3913063,28.7339914 22.7529674,28.6804231 L22.8637969,28.6722912 L26.032,28.672 L18.787,21.312 L14.7783104,25.3219606 C14.5120439,25.5882272 14.0953802,25.6124333 13.8017687,25.3945788 L13.7176503,25.3219606 L9.63,21.234 L2.386,28.671 L5.69974747,28.6722912 L5.81057697,28.6804231 C6.17223802,28.7339914 6.44974747,29.0457334 6.44974747,29.4222912 C6.44974747,29.801987 6.16759359,30.1157822 5.80151803,30.1654446 L5.69974747,30.1722912 L0.75,30.1722912 L0.645175107,30.1650238 L0.571316134,30.150876 L0.491748953,30.1266437 L0.399838514,30.0857012 L0.323957521,30.0396165 L0.243169757,29.975129 L0.170912131,29.8989347 L0.109961584,29.8134582 L0.0656949991,29.7297074 L0.0297396696,29.6320944 L0.0076057584,29.5294944 L6.67910172e-13,29.4222912 L6.67910172e-13,24.4725437 L0.00813192572,24.3617142 C0.0617002376,24.0000532 0.373442216,23.7225437 0.75,23.7225437 C1.12969577,23.7225437 1.44349096,24.0046976 1.49315338,24.3707732 L1.5,24.4725437 L1.499,27.433 L8.569,20.174 L1.69683498,13.3011454 C1.43056842,13.0348788 1.40636237,12.6182151 1.62421683,12.3246036 L1.69683498,12.2404852 L13.7176503,0.219669914 Z M14.3527697,23.728356 L25.2081355,12.7708153 L14.2479803,1.81066017 L3.28782524,12.7708153 L9.616,19.099 L14.3527697,23.728356 Z" fill="false"/><path d="M15.2319803,14.0468153 L15.2319803,13.2668153 C16.0033137,12.8508153 16.5579803,12.4218153 16.8959803,11.9798153 C17.2339803,11.5378153 17.4029803,11.0178153 17.4029803,10.4198153 C17.4029803,9.65714861 17.151647,9.06131528 16.6489803,8.63231528 C16.1463137,8.20331528 15.448647,7.98881528 14.5559803,7.98881528 C13.6979803,7.98881528 12.874647,8.19248195 12.0859803,8.59981528 L12.0859803,8.59981528 L12.0859803,10.3288153 C12.8313137,9.98214861 13.4943137,9.80881528 14.0749803,9.80881528 C14.395647,9.80881528 14.6404803,9.87814861 14.8094803,10.0168153 C14.9784803,10.1554819 15.0629803,10.3591486 15.0629803,10.6278153 C15.0629803,10.9138153 14.9763137,11.1651486 14.8029803,11.3818153 C14.629647,11.5984819 14.343647,11.8151486 13.9449803,12.0318153 L13.9449803,12.0318153 L13.1909803,12.4348153 L13.3339803,14.0468153 L15.2319803,14.0468153 Z M14.3089803,17.4398153 C14.7249803,17.4398153 15.0608137,17.3141486 15.3164803,17.0628153 C15.572147,16.8114819 15.6999803,16.4821486 15.6999803,16.0748153 C15.6999803,15.6674819 15.572147,15.3381486 15.3164803,15.0868153 C15.0608137,14.8354819 14.7249803,14.7098153 14.3089803,14.7098153 C13.8929803,14.7098153 13.557147,14.8354819 13.3014803,15.0868153 C13.0458137,15.3381486 12.9179803,15.6674819 12.9179803,16.0748153 C12.9179803,16.4821486 13.0458137,16.8114819 13.3014803,17.0628153 C13.557147,17.3141486 13.8929803,17.4398153 14.3089803,17.4398153 Z" fill="false"/></g></g><g stroke="none" stroke-width="1" fill="none" fill-rule="evenodd" id="icon-service-ddb"><polygon fill="url(#gradient-blue)" fill-rule="nonzero" points="0 0 48 0 48 48 0 48"/><path d="M34.5810287,19.5947556 L32.1910412,19.5947556 C31.9723757,19.5947556 31.7677101,19.4862534 31.6430441,19.3049671 C31.5183781,19.1230069 31.4897116,18.8911762 31.5670445,18.6842807 L33.2290358,14.2033421 L27.287067,14.2033421 L24.559748,20.2686823 L27.5243991,20.2686823 C27.738398,20.2686823 27.9397302,20.372467 28.0657296,20.5490358 C28.1903956,20.7242568 28.2250621,20.9500222 28.1563958,21.1555699 L25.7164086,28.5559589 L34.5810287,19.5947556 Z M36.6616844,19.3972951 L24.6624141,31.5279756 C24.5344148,31.6580435 24.3630824,31.7254361 24.1910833,31.7254361 C24.0697506,31.7254361 23.9490845,31.6924137 23.8410851,31.6250211 C23.5777532,31.4605829 23.4604204,31.1350764 23.5590866,30.8385486 L26.5990706,21.6165357 L23.5244201,21.6165357 C23.2977546,21.6165357 23.0870891,21.4999464 22.9637564,21.3078773 C22.841757,21.1144603 22.8237571,20.8725206 22.9177566,20.6636034 L26.2510724,13.2504097 C26.3590719,13.0098179 26.5957373,12.8554887 26.8577359,12.8554887 L34.1910307,12.8554887 C34.4096962,12.8554887 34.6143618,12.9639909 34.7390278,13.1452772 C34.8636938,13.3272374 34.8923603,13.5590681 34.8156941,13.7659636 L33.1530362,18.2469022 L36.1903535,18.2469022 C36.4596854,18.2469022 36.7036842,18.4113403 36.8063503,18.662715 C36.9096831,18.9147636 36.85235,19.2045521 36.6616844,19.3972951 L36.6616844,19.3972951 Z M30.8577149,32.241664 C29.0510577,33.4992112 25.7330752,34.163029 22.5457586,34.163029 C19.3351088,34.163029 15.9877931,33.4904502 14.1904692,32.214033 L14.1911358,34.7581063 C14.1911358,35.8673896 17.3697858,37.4140514 22.5457586,37.4140514 C27.542399,37.4140514 30.8577149,35.6126453 30.8577149,34.4211429 L30.8577149,32.241664 Z M32.2337077,30.0621851 C32.2337077,30.1868615 32.2123744,30.3068204 32.1910412,30.4261055 L32.1910412,34.4211429 C32.1910412,36.8149305 27.8643973,38.7619048 22.5457586,38.7619048 C17.9437828,38.7619048 13.2984739,37.5023358 12.8971426,35.0950696 L12.8578095,35.0950696 L12.8571429,31.7254361 L12.8571429,22.9643891 L12.8571429,13.5294154 L12.8578095,13.5294154 C12.8578095,10.8653831 17.8491166,9.42857143 22.5457586,9.42857143 C25.1730781,9.42857143 27.6990648,9.85516703 29.4770555,10.5991821 L28.9663915,11.8445986 C27.3450667,11.1652805 25.0044123,10.7764248 22.5457586,10.7764248 C17.3697858,10.7764248 14.1911358,12.3796964 14.1911358,13.5294154 C14.1911358,14.6791343 17.3697858,16.2824059 22.5457586,16.2824059 C22.6757579,16.2824059 22.8117572,16.2830798 22.9430898,16.2776884 L22.9950896,17.624194 C22.8450903,17.6302593 22.6957578,17.6302593 22.5457586,17.6302593 C19.3344421,17.6302593 15.9877931,16.9576805 14.1904692,15.6812633 L14.1904692,18.5865613 L14.1911358,18.5865613 L14.1911358,18.598018 C14.1944692,18.9511556 14.5171341,19.3602291 15.1004644,19.7443674 C16.4217908,20.60295 18.8004449,21.1899401 21.4597643,21.3119208 L21.399098,22.6584264 C18.6484457,22.5317282 16.2324584,21.9460859 14.6751333,21.0477416 C14.4684677,21.24655 14.1911358,21.751995 14.1911358,22.0256092 C14.1911358,23.1753282 17.3697858,24.7785998 22.5457586,24.7785998 C23.037756,24.7785998 23.5224201,24.7617516 23.9870843,24.7287292 L24.0810839,26.0732129 C23.5850865,26.1089311 23.0684225,26.1264532 22.5457586,26.1264532 C19.3344421,26.1264532 15.9877931,25.4538743 14.1904692,24.1774572 L14.1904692,26.6238111 L14.1911358,26.6238111 C14.1944692,26.9884054 14.5171341,27.3974789 15.1004644,27.7816171 C16.6124564,28.7648762 19.4664414,29.3774755 22.5457586,29.3774755 L22.7657574,29.3774755 L22.7657574,30.7253289 L22.5457586,30.7253289 C19.360442,30.7253289 15.9724598,30.053424 14.1911358,29.0297294 C13.9764703,29.2285377 14.1911358,29.7036561 14.1911358,30.0621851 C14.1911358,31.211904 17.3697858,32.8151756 22.5457586,32.8151756 C27.722398,32.8151756 30.9003813,31.211904 30.9003813,30.0621851 C30.9003813,29.6558073 30.5010501,29.2790822 30.1723852,29.0364686 C29.8997199,29.2009067 29.5997215,29.3586056 29.2577233,29.5028259 L28.745726,28.2580833 C29.0997241,28.1091455 29.4057225,27.9494249 29.6550545,27.7836389 C30.3890507,27.2943681 30.8577149,26.5982018 30.8577149,26.3340226 L32.1910412,26.3340226 C32.1910412,26.9607744 31.7770434,27.6320054 31.2463795,28.1839514 C32.041042,28.8774219 32.2337077,29.5695446 32.2337077,30.0621851 L32.2337077,30.0621851 Z M14.9517985,35.0209377 C15.4791291,35.2932041 16.0957925,35.5358177 16.7864555,35.7413653 L17.1624536,34.4481 C16.5517901,34.2668137 16.0117929,34.0552007 15.558462,33.8206742 L14.9517985,35.0209377 Z M16.7864555,27.654245 L17.1624536,26.3616536 C16.5517901,26.1796934 16.0117929,25.9687543 15.558462,25.7342278 L14.9517985,26.9338173 C15.4791291,27.2067576 16.0957925,27.4486973 16.7864555,27.654245 L16.7864555,27.654245 Z M14.9517985,18.8473709 L15.558462,17.6471075 C16.0117929,17.881634 16.5517901,18.092573 17.1624536,18.2745332 L16.7864555,19.5677986 C16.0957925,19.3622509 15.4791291,19.1196373 14.9517985,18.8473709 L14.9517985,18.8473709 Z" fill="#FFFFFF"/></g><g stroke="none" stroke-width="1" fill="none" fill-rule="evenodd" id="icon-service-lam"><polygon fill="url(#gradient-orange)" fill-rule="nonzero" points="0 0 48 0 48 48 0 48"/><g transform="translate(11, 10)" fill="#FFFFFF"><path d="M26.5889213,27.8937088 L19.6925948,27.8937088 C19.4772752,27.8931074 19.2813916,27.7706914 19.1888047,27.578869 L9.43766764,7.45673404 L5.31218659,7.45673404 C5.00303594,7.45673404 4.75241983,7.20943823 4.75241983,6.90438337 L4.75241983,0.828526005 C4.75241983,0.523471153 5.00303594,0.276175335 5.31218659,0.276175335 L13.9325948,0.276175335 C14.1479143,0.276776788 14.3437979,0.399192787 14.4363848,0.591015217 L24.1427405,20.7131501 L26.5889213,20.7131501 C26.8980719,20.7131501 27.148688,20.9604459 27.148688,21.2655008 L27.148688,27.3413582 C27.148688,27.646413 26.8980719,27.8937088 26.5889213,27.8937088 Z M20.0452478,26.7890075 L26.0291545,26.7890075 L26.0291545,21.8178515 L23.7900875,21.8178515 C23.5747679,21.81725 23.3788843,21.694834 23.2862974,21.5030116 L13.5799417,1.38087667 L5.87755102,1.38087667 L5.87755102,6.3520327 L9.79591837,6.3520327 C10.0112379,6.35263416 10.2071215,6.47505016 10.2997085,6.66687259 L20.0452478,26.7890075 Z"/><path d="M8.10542274,27.8937099 L0.82845481,27.8937099 C0.635054571,27.8940907 0.455155006,27.7959347 0.352653061,27.634104 C0.243858391,27.4681848 0.233185428,27.2575536 0.324664723,27.0817533 L7.93749271,11.3894708 C8.03007964,11.1976484 8.22596323,11.0752324 8.4412828,11.0746298 L8.4412828,11.0746298 C8.65533487,11.0742082 8.85089022,11.1942751 8.94507289,11.3839473 L12.5891545,18.7799228 C12.6634688,18.931712 12.6634688,19.1086786 12.5891545,19.2604679 L8.6148105,27.5457279 C8.53147526,27.7523199 8.33072312,27.8894609 8.10542274,27.8937099 L8.10542274,27.8937099 Z M1.72408163,26.7890075 L7.75276968,26.7890075 L11.4640233,19.0560981 L8.44688047,12.8973881 L1.72408163,26.7890075 Z"/></g></g><g stroke="none" stroke-width="1" fill="none" fill-rule="evenodd" id="icon-service-sns"><polygon fill="url(#gradient-sns)" fill-rule="nonzero" points="0 0 48 0 48 48 0 48"/><g transform="translate(6.857143, 8.571429)" fill="#FFFFFF"><path d="M27.7901299,23.6384416 L27.7901299,24.1558442 C27.7901299,24.0935065 27.7901299,24.0311688 27.7901299,23.9688312 C27.7775636,23.8590598 27.7775636,23.748213 27.7901299,23.6384416 L27.7901299,23.6384416 Z"/><path d="M19.6051948,11.2207792 L19.5428571,11.3392208 C19.5678154,11.3007712 19.5867361,11.258725 19.598961,11.2145455 L19.6051948,11.2207792 Z"/><path d="M14.2005195,9.05757391 C13.6457143,9.05757391 8.74597403,9.01402597 8.74597403,10.8654545 C8.7438301,10.9827418 8.76501986,11.0992855 8.80831169,11.2083117 C8.82653378,11.2531204 8.84734819,11.2968307 8.87064935,11.3392208 L12.2618182,18.8197403 L12.2618182,22.6909091 C12.2618182,23.0836364 12.4238961,23.3142857 12.7667532,23.3142857 L12.9288312,23.3142857 C13.7125247,23.1091801 14.440768,22.7322822 15.0607792,22.2109091 L15.4784416,21.9179221 C15.6592098,21.8049511 15.7697195,21.6074445 15.7714286,21.3942857 L15.7714286,18.8384416 L19.5428571,11.3579221 L19.5428571,11.3579221 C19.5678154,11.3194725 19.5867361,11.2774263 19.598961,11.2332468 C19.6422529,11.1242205 19.6634426,11.0076769 19.6612987,10.8903896 C19.6612987,9.01402597 14.7615584,9.05757391 14.2005195,9.05757391 Z M14.2005195,10.2046753 C16.401039,10.2046753 17.8161039,10.5911688 18.2898701,10.8654545 C17.8161039,11.1397403 16.4197403,11.5262338 14.2005195,11.5262338 C11.9812987,11.5262338 10.5911688,11.1397403 10.1174026,10.8654545 C10.5974026,10.5974026 12,10.2046753 14.2005195,10.2046753 Z M14.6555844,18.3085714 C14.6555844,18.3958442 14.6555844,18.5516883 14.6555844,18.7137662 L14.6555844,21.1511688 L14.4124675,21.3007792 C14.0571429,21.5064935 13.7454545,21.6498701 13.3901299,21.8368831 L13.3901299,18.7012987 C13.3886333,18.6158595 13.3717396,18.5313906 13.3402597,18.4519481 L10.6846753,12.3802597 C11.8389408,12.6374106 13.0179565,12.7670187 14.2005195,12.7667532 C15.348723,12.7658697 16.4936743,12.6446888 17.6166234,12.4051948 L14.6555844,18.3085714 Z"/><path d="M25.5584416,26.2877922 C23.1182592,28.0539489 20.1800425,28.9991553 17.1677922,28.987013 C10.3854545,28.987013 4.60051948,24.5797403 3.24155844,18.0779221 C4.49932636,18.0180834 5.56391168,17.129231 5.84727273,15.9023377 L9.02649351,15.9023377 L9.02649351,14.7241558 L5.85974026,14.7241558 C5.6123242,13.4628894 4.53770095,12.5322348 3.25402597,12.4675325 C4.38212696,7.89245649 7.68622619,4.16375023 12.0923456,2.49340779 C16.498465,0.823065355 21.4440467,1.42435019 25.3215584,4.10181818 L26.0322078,3.11688312 C21.7378924,0.149676116 16.24326,-0.470649087 11.3954912,1.46444787 C6.54772241,3.39954482 2.99061722,7.63307653 1.92,12.7418182 C0.932896899,13.199098 0.301171353,14.1879667 0.301171353,15.2758442 C0.301171353,16.3637216 0.932896899,17.3525903 1.92,17.8098701 C3.41748481,25.0404909 9.78373505,30.2277095 17.1677922,30.2337964 C20.4315682,30.2402168 23.6134536,29.2123238 26.2566234,27.2976623 L25.5584416,26.2877922 Z M1.55844156,15.2727273 C1.55271604,14.4800639 2.14291159,13.8093871 2.92987013,13.7142732 L3.11688312,13.7142732 C3.74777503,13.7117621 4.31794978,14.08986 4.56113229,14.6720054 C4.8043148,15.2541508 4.67252426,15.9254842 4.22730765,16.3724888 C3.78209103,16.8194934 3.11129125,16.9539736 2.52817587,16.7131263 C1.94506049,16.472279 1.56468037,15.9036242 1.56467532,15.2727273 L1.55844156,15.2727273 Z"/><path d="M3.02961039,13.7142857 L2.9361039,13.7142857 L3.02961039,13.7142857 Z"/><path d="M31.1688312,18.0779221 C32.6428447,18.078856 33.8661509,16.9388268 33.9689704,15.4684034 C34.0717898,13.99798 33.0190455,12.6987979 31.5592463,12.4945848 C30.0994471,12.2903718 28.7306038,13.2507951 28.425974,14.692987 L25.1844156,14.692987 L25.1844156,6.98181818 L26.8675325,6.98181818 C27.0563221,8.42101044 28.3118379,9.47848632 29.7621759,9.4198723 C31.2125139,9.36125828 32.3786008,8.20591564 32.4506373,6.75618235 C32.5226737,5.30644905 31.4768647,4.04119855 30.0394816,3.83909528 C28.6020985,3.63699201 27.2479353,4.56479439 26.9174026,5.97818182 L24.6233766,5.94701299 C24.46336,5.91295115 24.296661,5.95657638 24.173843,6.06465628 C24.0510249,6.17273618 23.9865594,6.33253568 24,6.49558442 L24,14.6742857 L19.2062338,14.6742857 L19.2062338,15.8275325 L24,15.8275325 L24,23.9812987 C24,24.3255801 24.2790952,24.6046753 24.6233766,24.6046753 L26.5807792,24.6046753 C26.8643557,26.0184294 28.1735338,26.9869377 29.6083906,26.8444521 C31.0432474,26.7019665 32.1363845,25.4949011 32.1363845,24.052987 C32.1363845,22.6110729 31.0432474,21.4040075 29.6083906,21.2615219 C28.1735338,21.1190363 26.8643557,22.0875446 26.5807792,23.5012987 L25.2218182,23.5012987 L25.1906494,15.8212987 L28.425974,15.8212987 C28.689181,17.1289264 29.8349914,18.0716159 31.1688312,18.0779221 Z M31.1688312,13.7142857 C32.0295347,13.7142857 32.7272727,14.4120238 32.7272727,15.2727273 C32.7272727,16.1334308 32.0295347,16.8311688 31.1688312,16.8311688 C30.3081277,16.8311688 29.6103896,16.1334308 29.6103896,15.2727273 C29.6103896,14.4120238 30.3081277,13.7142857 31.1688312,13.7142857 Z M29.6103896,5.04311688 C30.2387555,5.04566069 30.8035988,5.42680178 31.0411357,6.00854606 C31.2786727,6.59029034 31.1420368,7.25785835 30.6950374,7.69949371 C30.2480381,8.14112907 29.5788693,8.26969613 29.0000349,8.02515366 C28.4212006,7.7806112 28.046906,7.21120799 28.0519481,6.58285714 C28.0519347,6.16901677 28.2171807,5.77230541 28.5109782,5.48084892 C28.8047757,5.18939244 29.2027964,5.02732533 29.6166234,5.03064935 L29.6103896,5.04311688 Z M29.2987013,22.4415439 C30.1351427,22.4379775 30.8252457,23.0953453 30.8622859,23.9309738 C30.8993261,24.7666023 30.2700924,25.4824511 29.4366146,25.5528913 C28.6031369,25.6233315 27.8626884,25.0232393 27.7589582,24.1932468 L27.7589582,24.1932468 C27.7589582,24.1309091 27.7589582,24.0685714 27.7589582,24.0062338 C27.7587404,23.8950352 27.7712901,23.7841792 27.7963636,23.6758442 L27.7963636,23.6758442 C27.9497157,22.9654386 28.5720416,22.4541501 29.2987013,22.4415439 L29.2987013,22.4415439 Z"/></g></g></defs></g><style data-styled="true" data-styled-version="5.3.11">.zlwZY{cursor:pointer;}/*!sc*/
data-styled.g50[id="sc-fXSgeo"]{content:"zlwZY,"}/*!sc*/
.dZMWaG{stroke:#555;background-color:#555;stroke-width:1px;}/*!sc*/
data-styled.g51[id="sc-JrDLc"]{content:"dZMWaG,"}/*!sc*/
.iiujjq{stroke-width:0;stroke:none;fill:#f2f3f3;}/*!sc*/
data-styled.g52[id="sc-fjvvzt"]{content:"iiujjq,"}/*!sc*/
.cigjzp{font-size:10px;line-height:12.5;stroke:none;}/*!sc*/
data-styled.g53[id="sc-bbSZdi"]{content:"cigjzp,"}/*!sc*/
.jubXqc{fill:var(--color-text-form-secondary-smwr7a,#687078);}/*!sc*/
data-styled.g79[id="sc-fvtFIe"]{content:"jubXqc,"}/*!sc*/
.ghddec{font-weight:400;font-size:12px;line-height:16px;font-family:Amazon Ember,Arial,Roboto,Arial,sans-serif;text-shadow:none;fill:var(--color-text-button-primary-default-h1el7o,#16191f);}/*!sc*/
data-styled.g80[id="sc-bBeLUv"]{content:"ghddec,"}/*!sc*/
.igSnMv{fill:#fff9cc;stroke:var(--color-text-form-secondary-smwr7a,#687078);stroke-width:0.6px;}/*!sc*/
data-styled.g81[id="sc-ihgnxF"]{content:"igSnMv,"}/*!sc*/
</style><style>
.new-look-state-node &gt; rect:first-of-type {
  stroke: #687078;
  stroke-width: 1px;
  fill: #FFFFFF;
}

.new-look-state-node .error-icon circle {
 stroke-linejoin: round;
}

.new-look-state-node .error-icon circle, .new-look-state-node .error-icon path {
 stroke: var(--color-border-status-error-japsx0, #d13212);
 fill: none;
 stroke-width: 2px;
}

.new-look-state-node.has-errors &gt; rect:first-of-type {
 stroke: var(--color-border-status-error-japsx0, #d13212);
 fill: var(--color-background-status-error-wgh5bg, #fdf3f1);
}

.new-look-state-node.has-errors &gt; .bounding-box &gt; .new-look-state-node-sub &gt; rect {
  stroke: var(--color-border-status-error-japsx0, #d13212);
  fill: var(--color-background-status-error-wgh5bg, #fdf3f1);
}

.new-look-state-node .handle path {
  stroke: var(--color-border-dropdown-item-hover-38gqzc, #879596);
  stroke-width: 1px;
  fill: none;
}

.new-look-state-node {
  font-weight: 400;
  font-family: Amazon Ember, Arial, Roboto, Arial, sans-serif;
  text-shadow: none;
}

.new-look-state-node .line1 {
  fill: #687078;
  font-size: 12px;
}

.new-look-state-node .line2 {
  fill: #16191f;
}

.selected.node &gt; .new-look-state-node &gt; rect,
.selected.node &gt; .new-look-state-node &gt; .new-look-state-node &gt; rect,
.selected.node &gt; .new-look-state-node &gt; .bounding-box &gt; rect,
.selected.node &gt; .new-look-state-node.has-errors &gt; rect,
.selected.node &gt; .new-look-state-node.has-errors &gt; .bounding-box &gt; rect,
.selected.node &gt; .new-look-state-node.has-errors &gt; .new-look-state-node &gt; rect,
.selected.node &gt; .new-look-state-node &gt; .bounding-box &gt; .new-look-state-node-sub &gt; rect
 {
  stroke: var(--color-border-status-info-g4ewkk, #0073bb);
  fill: var(--color-background-status-info-79eqx5, #f1faff);
  stroke-width: 1px;
}

.new-look-state-node-sub .item-source.not-specified {
  height: 15px;
  color: #687078;
  font-family: "Amazon Ember";
  font-size: 12px;
  letter-spacing: 0;
  line-height: 16px;
  font-weight: 400;
}
.new-look-state-node-sub .item-source .item-source_name{
  font-weight: 600;
}
.new-look-state-node-sub .item-source.not-specified .item-source_name{
  font-weight: 400;
}

.new-look-state-node-sub .item-source.not-specified {
  font-style: italic;
}

.new-look-state-node-sub &gt; rect,
.new-look-state-node &gt; .bounding-box &gt; rect {
  stroke: var(--color-border-control-default-9558cz, #687078);
  fill: #ffffff;
}

.new-look-graph .drag-source {
  opacity: 0.2;
}

.new-look-graph .edge, .new-look-graph path.starting-connection {
  stroke-width: 1px;
  stroke: var(--color-text-form-secondary-smwr7a, #687078);
  marker-end: url(#large-arrowhead);
}

.new-look-graph .edge-label {
  cursor: pointer;
}

.new-look-graph .edge-label rect {
  stroke-width: 1px;
  stroke: var(--color-border-control-default-9558cz, #687078);
  fill: #fafafa;
}

.new-look-graph .edge-label.selected rect {
  stroke: var(--color-border-status-info-g4ewkk, #0073bb);
  fill: var(--color-background-status-info-79eqx5, #f1faff);
  stroke-width: 0.6px;
}



.new-look-graph .edge-label .label {
  fill: var(--color-text-form-secondary-smwr7a, #687078);
  font-family: Amazon Ember, Arial, Roboto, Arial, sans-serif;
}

/* centering the shape text */
@-moz-document url-prefix() {
  .new-look-graph .shape + text,
  .new-look-graph .edge-label text {
    transform: translateY(3.5px);
  }
}

.new-look-graph .edge path {
  marker-end: url(#large-arrowhead) !important;
}

.new-look-graph .edge.selected path{
  stroke: var(--color-border-status-info-g4ewkk, #0073bb);
  stroke-width: 1.1px;
}

.new-look-graph .edge.dragging-over path, .new-look-graph  g.dragging-over .starting-connection {
  stroke: #5C86FF;
  stroke-width: 2px;
}

.new-look-graph .edge.dragging-over path, .new-look-graph .dragging-over path.starting-connection {
  marker-end: url(#large-highlighted-arrowhead) !important;
}

.new-look-graph .edge.dragging-over .edge-label text {
  fill: #5C86FF;
}

#large-highlighted-arrowhead {
  fill: #5C86FF;
}

#large-highlighted-arrowhead path {
  stroke: none;
}

.new-look-graph .edge.drop-not-supported path, g.drop-not-supported .starting-connection {
  stroke: red;
}

.new-look-graph .edge.drop-not-supported .edge-label text {
  fill: red;
}

.new-look-graph .edge.drop-not-supported path {
  marker-end: url(#large-error-arrowhead) !important;
}

#large-error-arrowhead {
  fill: red;
}

.node-container * &gt; .icon  {
  &gt; rect {
    fill: #fafafa;
  }
  &gt; line {
    stroke: #d5dbdb;
  }
}


.node.Placeholder.dragging-over rect {
  stroke: var(--color-border-status-info-g4ewkk, #0073bb);
  fill: var(--color-background-status-info-79eqx5, #f1faff);
  stroke-width: 2px;
}

.node.Placeholder.dragging-over .label {
  fill: var(--color-text-status-info-7871xj, #0073bb);
}

g.Placeholder rect {
  stroke-dasharray: 5 4;
  stroke: var(--color-border-dropdown-item-hover-38gqzc, #879596);
  fill: #ffffff;
  stroke-width: 1px;
}

g.Placeholder .label {
  font-style: italic;
  fill: var(--color-text-input-placeholder-zd3pu1, #687078);
}

.node.Placeholder.drop-not-supported rect {
  stroke: red;
}

.node.Placeholder.drop-not-supported .label {
  fill: red;
}
</style><style>.line2 { font-size: 14px }</style></svg>